<svg width="76" height="58" viewBox="0 0 76 58" fill="none" xmlns="http://www.w3.org/2000/svg">
<path d="M65.7043 17.6704C67.3611 16.0136 70.0474 16.0136 71.7043 17.6704V17.6704C73.3611 19.3273 73.3611 22.0136 71.7043 23.6704L40.7043 54.6704C39.0474 56.3273 36.3611 56.3273 34.7043 54.6704V54.6704C33.0474 53.0136 33.0474 50.3273 34.7043 48.6704L65.7043 17.6704Z" fill="black"/>
<path d="M20.3611 10.6704C16.7975 10.6704 15.0128 6.36184 17.5327 3.84198V3.84198C18.2828 3.09184 19.3002 2.67041 20.3611 2.67041L55.0474 2.67041C56.1083 2.67041 57.1257 3.09184 57.8758 3.84198V3.84198C60.3957 6.36184 58.611 10.6704 55.0474 10.6704L20.3611 10.6704Z" fill="black"/>
<path d="M10.7043 22.6704C8.49512 22.6704 6.70425 20.8795 6.70425 18.6704V18.6704C6.70425 16.4613 8.49512 14.6704 10.7043 14.6704L64.7042 14.6704C66.9134 14.6704 68.7042 16.4613 68.7042 18.6704V18.6704C68.7042 20.8795 66.9134 22.6704 64.7042 22.6704L10.7043 22.6704Z" fill="black"/>
<path d="M16.6547 4.71994C17.8464 3.52823 19.7136 3.34334 21.1159 4.27821V4.27821C22.9723 5.51581 23.2324 8.14236 21.6547 9.71998L8.20425 23.1704C6.82354 24.5511 4.58497 24.5511 3.20426 23.1704V23.1704C1.82355 21.7897 1.82355 19.5511 3.20426 18.1704L16.6547 4.71994Z" fill="black"/>
<path d="M67.2043 23.1704C68.585 24.5511 70.8235 24.5511 72.2043 23.1704V23.1704C73.585 21.7897 73.585 19.5511 72.2043 18.1704L58.7538 4.71993C57.5621 3.52822 55.6949 3.34334 54.2926 4.2782V4.2782C52.4362 5.51579 52.1762 8.14232 53.7538 9.71994L67.2043 23.1704Z" fill="black"/>
<path d="M48.8231 10.9631C49.8453 8.63048 52.6126 7.62947 54.8906 8.76843V8.76843C57.0221 9.83418 57.936 12.3896 56.9639 14.5654L40.2551 51.9614C39.0245 54.7156 35.4158 55.382 33.2826 53.249V53.249C32.0292 51.9957 31.6724 50.102 32.3839 48.4785L48.8231 10.9631Z" fill="black"/>
<path d="M18.4305 14.534C17.4652 12.3736 18.3727 9.83617 20.4892 8.77795V8.77795C22.7721 7.6365 25.5445 8.66053 26.5373 11.0119L42.6593 49.1956C43.291 50.6918 42.9531 52.4216 41.8046 53.5701V53.5701C39.8265 55.5482 36.4799 54.9302 35.3387 52.3761L18.4305 14.534Z" fill="black"/>
<path d="M3.70425 23.6704C2.0474 22.0136 2.0474 19.3273 3.70425 17.6704V17.6704C5.36111 16.0136 8.0474 16.0136 9.70425 17.6704L40.7043 48.6704C42.3611 50.3273 42.3611 53.0135 40.7043 54.6704V54.6704C39.0474 56.3273 36.3611 56.3273 34.7042 54.6704L3.70425 23.6704Z" fill="black"/>
</svg>
