<svg width="80" height="64" viewBox="0 0 80 64" fill="none" xmlns="http://www.w3.org/2000/svg">
<path d="M37.4293 55.4773C36.0803 56.8782 36.1012 59.1012 37.4764 60.4764V60.4764C38.8702 61.8702 41.1298 61.8702 42.5236 60.4764L77.0244 25.9756C78.6464 24.3536 78.5889 21.7065 76.898 20.1565V20.1565C75.2861 18.6789 72.7898 18.7567 71.2731 20.3318L37.4293 55.4773Z" fill="black"/>
<path d="M72.5143 25.6877C73.9014 26.9781 76.061 26.939 77.4006 25.5994V25.5994C78.8176 24.1824 78.7673 21.87 77.2901 20.5159L59.813 4.49529C58.0027 2.83583 55.0862 3.55856 54.2602 5.8713V5.8713C53.7989 7.16301 54.1507 8.60534 55.155 9.53956L72.5143 25.6877Z" fill="black"/>
<path d="M35.8147 55.7844C35.3947 56.9244 35.6435 58.2033 36.4603 59.1026V59.1026C38.0879 60.8946 41.0319 60.3497 41.9103 58.0939L61.0708 8.88641C61.631 7.44775 61.2503 5.81275 60.1122 4.76951V4.76951C58.1504 2.97123 54.9914 3.73732 54.0714 6.23447L35.8147 55.7844Z" fill="black"/>
<path d="M42.5707 55.4773C43.9197 56.8782 43.8988 59.1012 42.5236 60.4764V60.4764C41.1298 61.8702 38.8702 61.8702 37.4764 60.4764L2.9756 25.9756C1.35356 24.3536 1.41107 21.7065 3.10204 20.1565V20.1565C4.71394 18.6789 7.21015 18.7567 8.7269 20.3318L42.5707 55.4773Z" fill="black"/>
<path d="M7.4857 25.6877C6.0986 26.9781 3.93904 26.939 2.59945 25.5994V25.5994C1.18245 24.1824 1.2327 21.87 2.70991 20.5159L20.187 4.49529C21.9973 2.83583 24.9138 3.55856 25.7398 5.8713V5.8713C26.2011 7.16301 25.8493 8.60534 24.845 9.53956L7.4857 25.6877Z" fill="black"/>
<path d="M44.1853 55.7844C44.6053 56.9244 44.3565 58.2033 43.5397 59.1026V59.1026C41.9121 60.8946 38.9681 60.3497 38.0897 58.0939L18.9292 8.88641C18.369 7.44775 18.7497 5.81275 19.8878 4.76951V4.76951C21.8496 2.97123 25.0086 3.73732 25.9286 6.23447L44.1853 55.7844Z" fill="black"/>
<rect x="5" y="19" width="70" height="8" rx="4" fill="black"/>
<rect x="19" y="3.5" width="42" height="7.5" rx="3.75" fill="black"/>
</svg>
