<svg width="71" height="65" viewBox="0 0 71 65" fill="none" xmlns="http://www.w3.org/2000/svg">
<rect x="9.99999" y="24" width="8" height="40.7816" rx="4" fill="black"/>
<path d="M32.8284 8.48531C31.2664 6.92322 31.2663 4.39057 32.8284 2.82847V2.82847C34.3905 1.26636 36.9232 1.26635 38.4853 2.82845L67.8434 32.1866C69.4055 33.7487 69.4055 36.2813 67.8434 37.8434V37.8434C66.2813 39.4055 63.7486 39.4055 62.1866 37.8434L32.8284 8.48531Z" fill="black"/>
<path d="M32.2215 2.82843C33.7836 1.26633 36.3163 1.26633 37.8784 2.82843V2.82843C39.4405 4.39052 39.4405 6.92318 37.8784 8.48528L8.48528 37.8784C6.92319 39.4404 4.39053 39.4404 2.82843 37.8784V37.8784C1.26633 36.3163 1.26633 33.7836 2.82843 32.2215L32.2215 2.82843Z" fill="black"/>
<rect x="9.99999" y="65" width="8" height="50.977" rx="4" transform="rotate(-90 9.99999 65)" fill="black"/>
<rect x="53" y="24" width="8" height="40.7816" rx="4" fill="black"/>
</svg>
