<svg width="63" height="63" viewBox="0 0 63 63" fill="none" xmlns="http://www.w3.org/2000/svg">
<path d="M63 31.5C63 37.197 61.455 42.7873 58.5295 47.6757C55.604 52.5642 51.4076 56.5678 46.387 59.2602C41.3664 61.9526 35.7096 63.233 30.019 62.9652C24.3283 62.6973 18.8168 60.8912 14.0713 57.7391C9.3258 54.587 5.52396 50.207 3.07059 45.0653C0.617213 39.9237 -0.395848 34.213 0.139268 28.5412C0.674384 22.8694 2.73764 17.4489 6.10936 12.8569C9.48108 8.26484 14.035 4.67314 19.2863 2.46423L21.9368 8.76516C17.825 10.4947 14.2593 13.307 11.6193 16.9026C8.97925 20.4981 7.36372 24.7423 6.94473 29.1833C6.52574 33.6242 7.31896 38.0957 9.23994 42.1216C11.1609 46.1474 14.1377 49.577 17.8534 52.0451C21.5691 54.5131 25.8846 55.9273 30.3404 56.137C34.7961 56.3468 39.2253 55.3442 43.1564 53.236C47.0875 51.1279 50.3733 47.9931 52.664 44.1655C54.9546 40.3379 56.1643 35.9607 56.1643 31.5L63 31.5Z" fill="black"/>
<!-- <path d="M63 31.5C63 26.305 61.7152 21.1907 59.2599 16.6125C56.8047 12.0344 53.2553 8.13451 48.9278 5.26031C44.6004 2.38612 39.6292 0.626821 34.4572 0.139118C29.2852 -0.348585 24.0728 0.450449 19.2844 2.46505L21.9349 8.76491C25.6843 7.18743 29.7657 6.56176 33.8156 6.94365C37.8654 7.32553 41.7579 8.7031 45.1464 10.9537C48.5349 13.2042 51.3142 16.2579 53.2367 19.8427C55.1592 23.4276 56.1653 27.4322 56.1653 31.5H63Z" fill="#808080"/> -->
</svg>
